<svg width="22" height="17" viewBox="0 0 22 17" fill="none" xmlns="http://www.w3.org/2000/svg">
    <g clip-path="url(#clip0_1_1010)">
    <g filter="url(#filter0_b_1_1010)">
    <mask id="path-1-inside-1_1_1010" fill="white">
    <path fill-rule="evenodd" clip-rule="evenodd" d="M10.4081 3.41292H11.8318C11.8318 3.18952 11.8335 2.97103 11.8351 2.75553C11.8382 2.33323 11.8413 1.92238 11.8318 1.50839C11.8174 1.13467 11.5154 0.861563 11.1559 0.840002C10.7964 0.825629 10.4369 1.07717 10.4153 1.43652C10.3952 1.89343 10.3997 2.35034 10.4042 2.81215C10.4062 3.01137 10.4081 3.21149 10.4081 3.41292ZM0.737278 10.43C0.51372 11.1747 0.290718 11.9176 0.319968 12.7128C0.319968 12.7607 0.319169 12.8086 0.31837 12.8566C0.316772 12.9524 0.315175 13.0482 0.319968 13.144C0.478157 15.6451 2.85818 17.2621 5.23821 16.4716C6.2952 16.1194 7.0502 15.4079 7.48881 14.3874C7.89147 13.4603 8.53861 12.7775 9.48775 12.4397C10.4513 12.0947 11.4507 12.1019 12.4286 12.3391C13.5 12.605 14.1903 13.3309 14.6361 14.3299C15.3767 16.0044 17.2318 16.9603 18.9359 16.565C20.9852 16.0907 22.337 13.9418 21.7977 11.9079C21.3304 10.1255 20.827 8.35754 20.2662 6.60393C19.3889 3.85852 15.8585 2.75892 13.7085 4.72814C13.6222 4.80719 13.4712 4.8575 13.3562 4.8575C11.8462 4.86469 10.3362 4.86469 8.82623 4.8575C8.6968 4.8575 8.53861 4.80719 8.44514 4.72095C6.23768 2.72298 2.62809 3.89445 1.80838 6.74766C1.73109 7.01179 1.65334 7.27591 1.57559 7.54004C1.34235 8.33239 1.10911 9.12475 0.888011 9.9171C0.839756 10.0886 0.788503 10.2593 0.737278 10.43ZM15.2599 9.1303C15.3401 9.05261 15.4278 8.96766 15.5277 8.86781C15.4511 8.79977 15.3779 8.73844 15.3085 8.6803C15.2019 8.59103 15.1043 8.50926 15.0172 8.42222C14.6505 8.05569 14.6289 7.62447 14.9381 7.31543C15.2473 7.00639 15.6787 7.04233 16.0454 7.40886C16.1649 7.52828 16.2799 7.65221 16.4188 7.80199C16.4555 7.8415 16.4938 7.88282 16.5344 7.92632C16.5919 7.86244 16.6462 7.80045 16.6989 7.74035C16.8241 7.59762 16.9399 7.46556 17.0664 7.34418C17.39 7.03514 17.8071 7.02795 18.0947 7.30825C18.3967 7.60291 18.3895 8.03413 18.0731 8.36472C17.9524 8.4906 17.8202 8.60499 17.6626 8.74142C17.6042 8.79194 17.5424 8.84548 17.4763 8.90374C17.5663 8.98792 17.6516 9.06271 17.7328 9.13381C17.8525 9.23876 17.963 9.33565 18.0659 9.44276C18.3895 9.78055 18.3895 10.2118 18.0947 10.4992C17.7927 10.7939 17.3756 10.7795 17.0449 10.4489C16.9376 10.337 16.8394 10.2161 16.7306 10.0821C16.6717 10.0096 16.6097 9.93321 16.5415 9.85242C16.457 9.94223 16.3831 10.0233 16.3149 10.0981C16.1975 10.2269 16.097 10.3372 15.9879 10.4417C15.6427 10.7723 15.2329 10.7939 14.9309 10.4992C14.6217 10.1974 14.6361 9.76618 14.974 9.41402C15.0635 9.32049 15.1553 9.23156 15.2599 9.1303ZM5.09833 8.19056C5.18194 8.19138 5.26863 8.19224 5.36045 8.19224C5.36045 8.11856 5.35995 8.04986 5.35948 7.98468C5.35816 7.80189 5.35704 7.64685 5.36764 7.48792C5.38202 7.0567 5.68402 6.74766 6.08668 6.75485C6.48215 6.75485 6.78415 7.06389 6.79853 7.50229C6.80323 7.64315 6.80179 7.78401 6.80022 7.93689C6.79939 8.01802 6.79853 8.10254 6.79853 8.19224C6.88169 8.19224 6.96235 8.19141 7.04136 8.19059C7.19464 8.18901 7.34173 8.1875 7.48881 8.19224C7.92024 8.20661 8.22942 8.50846 8.22942 8.90374C8.22942 9.30621 7.92024 9.60806 7.48881 9.62244C7.34898 9.6271 7.21218 9.62572 7.05881 9.62417C6.97557 9.62333 6.88746 9.62244 6.79134 9.62244C6.79134 9.70375 6.79219 9.78168 6.79301 9.85738C6.79458 10.0025 6.79607 10.1395 6.79134 10.2764C6.78415 10.7436 6.50372 11.0526 6.08668 11.0598C5.66245 11.067 5.36764 10.7508 5.36045 10.2621V9.62244C5.26832 9.62244 5.18136 9.6233 5.09778 9.62413C4.94002 9.62569 4.79431 9.62714 4.6486 9.62244C4.23155 9.60088 3.92956 9.30621 3.92237 8.92531C3.90798 8.53002 4.20998 8.2138 4.64141 8.19224C4.79209 8.18753 4.93968 8.18899 5.09833 8.19056Z"/>
    </mask>
    <path fill-rule="evenodd" clip-rule="evenodd" d="M10.4081 3.41292H11.8318C11.8318 3.18952 11.8335 2.97103 11.8351 2.75553C11.8382 2.33323 11.8413 1.92238 11.8318 1.50839C11.8174 1.13467 11.5154 0.861563 11.1559 0.840002C10.7964 0.825629 10.4369 1.07717 10.4153 1.43652C10.3952 1.89343 10.3997 2.35034 10.4042 2.81215C10.4062 3.01137 10.4081 3.21149 10.4081 3.41292ZM0.737278 10.43C0.51372 11.1747 0.290718 11.9176 0.319968 12.7128C0.319968 12.7607 0.319169 12.8086 0.31837 12.8566C0.316772 12.9524 0.315175 13.0482 0.319968 13.144C0.478157 15.6451 2.85818 17.2621 5.23821 16.4716C6.2952 16.1194 7.0502 15.4079 7.48881 14.3874C7.89147 13.4603 8.53861 12.7775 9.48775 12.4397C10.4513 12.0947 11.4507 12.1019 12.4286 12.3391C13.5 12.605 14.1903 13.3309 14.6361 14.3299C15.3767 16.0044 17.2318 16.9603 18.9359 16.565C20.9852 16.0907 22.337 13.9418 21.7977 11.9079C21.3304 10.1255 20.827 8.35754 20.2662 6.60393C19.3889 3.85852 15.8585 2.75892 13.7085 4.72814C13.6222 4.80719 13.4712 4.8575 13.3562 4.8575C11.8462 4.86469 10.3362 4.86469 8.82623 4.8575C8.6968 4.8575 8.53861 4.80719 8.44514 4.72095C6.23768 2.72298 2.62809 3.89445 1.80838 6.74766C1.73109 7.01179 1.65334 7.27591 1.57559 7.54004C1.34235 8.33239 1.10911 9.12475 0.888011 9.9171C0.839756 10.0886 0.788503 10.2593 0.737278 10.43ZM15.2599 9.1303C15.3401 9.05261 15.4278 8.96766 15.5277 8.86781C15.4511 8.79977 15.3779 8.73844 15.3085 8.6803C15.2019 8.59103 15.1043 8.50926 15.0172 8.42222C14.6505 8.05569 14.6289 7.62447 14.9381 7.31543C15.2473 7.00639 15.6787 7.04233 16.0454 7.40886C16.1649 7.52828 16.2799 7.65221 16.4188 7.80199C16.4555 7.8415 16.4938 7.88282 16.5344 7.92632C16.5919 7.86244 16.6462 7.80045 16.6989 7.74035C16.8241 7.59762 16.9399 7.46556 17.0664 7.34418C17.39 7.03514 17.8071 7.02795 18.0947 7.30825C18.3967 7.60291 18.3895 8.03413 18.0731 8.36472C17.9524 8.4906 17.8202 8.60499 17.6626 8.74142C17.6042 8.79194 17.5424 8.84548 17.4763 8.90374C17.5663 8.98792 17.6516 9.06271 17.7328 9.13381C17.8525 9.23876 17.963 9.33565 18.0659 9.44276C18.3895 9.78055 18.3895 10.2118 18.0947 10.4992C17.7927 10.7939 17.3756 10.7795 17.0449 10.4489C16.9376 10.337 16.8394 10.2161 16.7306 10.0821C16.6717 10.0096 16.6097 9.93321 16.5415 9.85242C16.457 9.94223 16.3831 10.0233 16.3149 10.0981C16.1975 10.2269 16.097 10.3372 15.9879 10.4417C15.6427 10.7723 15.2329 10.7939 14.9309 10.4992C14.6217 10.1974 14.6361 9.76618 14.974 9.41402C15.0635 9.32049 15.1553 9.23156 15.2599 9.1303ZM5.09833 8.19056C5.18194 8.19138 5.26863 8.19224 5.36045 8.19224C5.36045 8.11856 5.35995 8.04986 5.35948 7.98468C5.35816 7.80189 5.35704 7.64685 5.36764 7.48792C5.38202 7.0567 5.68402 6.74766 6.08668 6.75485C6.48215 6.75485 6.78415 7.06389 6.79853 7.50229C6.80323 7.64315 6.80179 7.78401 6.80022 7.93689C6.79939 8.01802 6.79853 8.10254 6.79853 8.19224C6.88169 8.19224 6.96235 8.19141 7.04136 8.19059C7.19464 8.18901 7.34173 8.1875 7.48881 8.19224C7.92024 8.20661 8.22942 8.50846 8.22942 8.90374C8.22942 9.30621 7.92024 9.60806 7.48881 9.62244C7.34898 9.6271 7.21218 9.62572 7.05881 9.62417C6.97557 9.62333 6.88746 9.62244 6.79134 9.62244C6.79134 9.70375 6.79219 9.78168 6.79301 9.85738C6.79458 10.0025 6.79607 10.1395 6.79134 10.2764C6.78415 10.7436 6.50372 11.0526 6.08668 11.0598C5.66245 11.067 5.36764 10.7508 5.36045 10.2621V9.62244C5.26832 9.62244 5.18136 9.6233 5.09778 9.62413C4.94002 9.62569 4.79431 9.62714 4.6486 9.62244C4.23155 9.60088 3.92956 9.30621 3.92237 8.92531C3.90798 8.53002 4.20998 8.2138 4.64141 8.19224C4.79209 8.18753 4.93968 8.18899 5.09833 8.19056Z" fill="#E60000"/>
    <path d="M11.8318 3.41292V4.41292H12.8318V3.41292H11.8318ZM10.4081 3.41292H9.40811V4.41292H10.4081V3.41292ZM11.8351 2.75553L12.835 2.76304V2.76304L11.8351 2.75553ZM11.8318 1.50839L12.8316 1.48539L12.8314 1.47766L12.8311 1.46994L11.8318 1.50839ZM11.1559 0.840002L11.2158 -0.158204L11.2058 -0.158801L11.1959 -0.159199L11.1559 0.840002ZM10.4153 1.43652L9.4171 1.3766L9.41662 1.38459L9.41627 1.39258L10.4153 1.43652ZM10.4042 2.81215L11.4042 2.80236V2.80236L10.4042 2.81215ZM0.319968 12.7128H1.31997V12.6944L1.31929 12.6761L0.319968 12.7128ZM0.737278 10.43L-0.220499 10.1425L-0.2205 10.1425L0.737278 10.43ZM0.31837 12.8566L-0.681491 12.8399L0.31837 12.8566ZM0.319968 13.144L-0.67887 13.194L-0.678038 13.2072L0.319968 13.144ZM5.23821 16.4716L5.55344 17.4206L5.5543 17.4203L5.23821 16.4716ZM7.48881 14.3874L6.57158 13.989L6.57007 13.9925L7.48881 14.3874ZM9.48775 12.4397L9.82303 13.3818L9.82483 13.3812L9.48775 12.4397ZM12.4286 12.3391L12.6695 11.3685L12.6643 11.3673L12.4286 12.3391ZM14.6361 14.3299L15.5506 13.9254L15.5493 13.9224L14.6361 14.3299ZM18.9359 16.565L18.7104 15.5908L18.71 15.5909L18.9359 16.565ZM21.7977 11.9079L20.8304 12.1615L20.8311 12.1642L21.7977 11.9079ZM20.2662 6.60393L19.3136 6.90829L19.3137 6.90855L20.2662 6.60393ZM13.7085 4.72814L13.0331 3.99072L13.033 3.99082L13.7085 4.72814ZM13.3562 4.8575V3.85749L13.3514 3.85751L13.3562 4.8575ZM8.82623 4.8575L8.83099 3.8575H8.82623V4.8575ZM8.44514 4.72095L9.12327 3.98595L9.11619 3.97954L8.44514 4.72095ZM1.80838 6.74766L2.76814 7.02854L2.76951 7.02379L1.80838 6.74766ZM1.57559 7.54004L2.53489 7.82242L1.57559 7.54004ZM0.888011 9.9171L1.85063 10.188L1.85121 10.1859L0.888011 9.9171ZM15.5277 8.86781L16.2346 9.57509L16.9851 8.82498L16.1919 8.12024L15.5277 8.86781ZM15.2599 9.1303L14.5641 8.41202L14.5641 8.41202L15.2599 9.1303ZM15.3085 8.6803L15.9506 7.91367L15.9506 7.91367L15.3085 8.6803ZM15.0172 8.42222L14.3102 9.1295L14.3102 9.1295L15.0172 8.42222ZM16.0454 7.40886L16.7523 6.70159L16.7523 6.70158L16.0454 7.40886ZM16.4188 7.80199L17.1519 7.12183L17.1519 7.12183L16.4188 7.80199ZM16.5344 7.92632L15.8026 8.60791L16.5468 9.40689L17.2775 8.59547L16.5344 7.92632ZM16.6989 7.74035L17.4508 8.39972V8.39972L16.6989 7.74035ZM17.0664 7.34418L16.3758 6.62102L16.3741 6.62262L17.0664 7.34418ZM18.0947 7.30825L18.793 6.5925L18.7926 6.59208L18.0947 7.30825ZM18.0731 8.36472L18.7949 9.0568L18.7956 9.05612L18.0731 8.36472ZM17.6626 8.74142L17.0082 7.98527L17.0082 7.98527L17.6626 8.74142ZM17.4763 8.90374L16.8149 8.15375L15.989 8.8821L16.7933 9.63418L17.4763 8.90374ZM17.7328 9.13381L17.0736 9.88581L17.0736 9.88581L17.7328 9.13381ZM18.0659 9.44276L18.7881 8.75102L18.7871 8.75006L18.0659 9.44276ZM18.0947 10.4992L17.3965 9.78329L17.3963 9.7835L18.0947 10.4992ZM17.0449 10.4489L16.3231 11.141L16.3304 11.1487L16.3379 11.1562L17.0449 10.4489ZM16.7306 10.0821L15.9543 10.7124L15.9543 10.7124L16.7306 10.0821ZM16.5415 9.85242L17.3057 9.20736L16.5823 8.35044L15.8135 9.16688L16.5415 9.85242ZM16.3149 10.0981L17.054 10.7717V10.7717L16.3149 10.0981ZM15.9879 10.4417L15.2962 9.71959L15.2961 9.71959L15.9879 10.4417ZM14.9309 10.4992L14.2323 11.2148L14.2325 11.215L14.9309 10.4992ZM14.974 9.41402L15.6955 10.1064L15.6965 10.1054L14.974 9.41402ZM5.36045 8.19224V9.19224H6.36045V8.19224H5.36045ZM5.09833 8.19056L5.10821 7.19061H5.10821L5.09833 8.19056ZM5.35948 7.98468L6.35945 7.97745V7.97745L5.35948 7.98468ZM5.36764 7.48792L6.36542 7.55447L6.36653 7.53787L6.36708 7.52125L5.36764 7.48792ZM6.08668 6.75485L6.06883 7.75469L6.07776 7.75485H6.08668V6.75485ZM6.79853 7.50229L5.79907 7.53508L5.79909 7.53562L6.79853 7.50229ZM6.80022 7.93689L5.80028 7.92667V7.92667L6.80022 7.93689ZM6.79853 8.19224H5.79853V9.19224H6.79853V8.19224ZM7.04136 8.19059L7.05167 9.19054H7.05167L7.04136 8.19059ZM7.48881 8.19224L7.52211 7.19279L7.52104 7.19276L7.48881 8.19224ZM7.48881 9.62244L7.45551 8.62299H7.45551L7.48881 9.62244ZM7.05881 9.62417L7.04871 10.6241H7.04872L7.05881 9.62417ZM6.79134 9.62244V8.62244H5.79134V9.62244H6.79134ZM6.79301 9.85738L5.79307 9.86823L6.79301 9.85738ZM6.79134 10.2764L5.79193 10.242L5.79161 10.2515L5.79146 10.2611L6.79134 10.2764ZM6.08668 11.0598L6.10362 12.0597L6.10391 12.0597L6.08668 11.0598ZM5.36045 10.2621H4.36045V10.2694L4.36056 10.2768L5.36045 10.2621ZM5.36045 9.62244H6.36045V8.62244H5.36045V9.62244ZM5.09778 9.62413L5.10769 10.6241L5.1077 10.6241L5.09778 9.62413ZM4.6486 9.62244L4.59697 10.6211L4.60667 10.6216L4.61637 10.6219L4.6486 9.62244ZM3.92237 8.92531L4.92219 8.90643L4.92202 8.89769L4.9217 8.88895L3.92237 8.92531ZM4.64141 8.19224L4.61018 7.19273L4.60084 7.19302L4.59149 7.19348L4.64141 8.19224ZM11.8318 2.41292H10.4081V4.41292H11.8318V2.41292ZM10.8351 2.74802C10.8335 2.96297 10.8318 3.18516 10.8318 3.41292H12.8318C12.8318 3.19387 12.8334 2.9791 12.835 2.76304L10.8351 2.74802ZM10.8321 1.53138C10.8412 1.92758 10.8383 2.32316 10.8351 2.74802L12.835 2.76304C12.8382 2.3433 12.8415 1.91719 12.8316 1.48539L10.8321 1.53138ZM11.0961 1.83821C11.0413 1.83492 10.9811 1.81199 10.9297 1.76253C10.8742 1.70909 10.8357 1.62976 10.8326 1.54684L12.8311 1.46994C12.7949 0.529849 12.0344 -0.109108 11.2158 -0.158204L11.0961 1.83821ZM11.4135 1.49644C11.4041 1.65251 11.3206 1.75065 11.2694 1.79011C11.2239 1.82522 11.1741 1.84153 11.116 1.8392L11.1959 -0.159199C10.4449 -0.189224 9.47974 0.333073 9.4171 1.3766L11.4135 1.49644ZM11.4042 2.80236C11.3996 2.33601 11.3956 1.90602 11.4143 1.48045L9.41627 1.39258C9.3948 1.88084 9.39977 2.36467 9.40425 2.82194L11.4042 2.80236ZM11.4081 3.41292C11.4081 3.20579 11.4061 3.00079 11.4042 2.80236L9.40425 2.82194C9.40621 3.02194 9.40811 3.21719 9.40811 3.41292H11.4081ZM1.31929 12.6761C1.29711 12.0731 1.46384 11.4877 1.69506 10.7175L-0.2205 10.1425C-0.436405 10.8617 -0.715678 11.7621 -0.679356 12.7496L1.31929 12.6761ZM1.31823 12.8732C1.31901 12.8267 1.31997 12.7705 1.31997 12.7128H-0.680032C-0.680032 12.751 -0.680669 12.7906 -0.681491 12.8399L1.31823 12.8732ZM1.31872 13.0941C1.31587 13.0371 1.31654 12.9746 1.31823 12.8732L-0.681491 12.8399C-0.682996 12.9302 -0.685519 13.0593 -0.678783 13.194L1.31872 13.0941ZM4.92298 15.5226C3.16943 16.105 1.43505 14.9319 1.31797 13.0809L-0.678038 13.2072C-0.478731 16.3583 2.54694 18.4193 5.55344 17.4206L4.92298 15.5226ZM6.57007 13.9925C6.24064 14.759 5.70016 15.2636 4.92212 15.5229L5.5543 17.4203C6.89025 16.9752 7.85975 16.0568 8.40755 14.7822L6.57007 13.9925ZM9.15246 11.4976C7.90156 11.9428 7.06601 12.8506 6.57158 13.989L8.40604 14.7857C8.71693 14.0699 9.17566 13.6122 9.82303 13.3818L9.15246 11.4976ZM12.6643 11.3673C11.5381 11.0941 10.3345 11.0744 9.15066 11.4982L9.82483 13.3812C10.568 13.1151 11.3634 13.1097 12.1929 13.3109L12.6643 11.3673ZM15.5493 13.9224C15.0138 12.7224 14.1157 11.7275 12.6695 11.3685L12.1877 13.3096C12.8843 13.4825 13.3668 13.9394 13.7229 14.7374L15.5493 13.9224ZM18.71 15.5909C17.4986 15.8719 16.1077 15.185 15.5506 13.9254L13.7215 14.7344C14.6457 16.8239 16.965 18.0487 19.1619 17.5392L18.71 15.5909ZM20.8311 12.1642C21.2197 13.6296 20.2326 15.2384 18.7104 15.5908L19.1615 17.5393C21.7379 16.9429 23.4543 14.2539 22.7643 11.6516L20.8311 12.1642ZM19.3137 6.90855C19.8681 8.64191 20.3665 10.3925 20.8304 12.1615L22.765 11.6542C22.2942 9.85859 21.786 8.07317 21.2186 6.2993L19.3137 6.90855ZM14.384 5.46556C15.9473 4.03365 18.6381 4.79426 19.3136 6.90829L21.2187 6.29956C20.1398 2.92278 15.7696 1.48418 13.0331 3.99072L14.384 5.46556ZM13.3562 5.8575C13.6799 5.8575 14.0849 5.73953 14.3841 5.46546L13.033 3.99082C13.0777 3.9498 13.117 3.92475 13.1422 3.91058C13.1683 3.89586 13.1902 3.88666 13.2069 3.88067C13.233 3.87136 13.2806 3.8575 13.3562 3.8575V5.8575ZM8.82147 5.85749C10.3346 5.86469 11.8478 5.86469 13.3609 5.85749L13.3514 3.85751C11.8446 3.86468 10.3378 3.86468 8.83099 3.85751L8.82147 5.85749ZM7.76703 5.45592C8.08422 5.74857 8.50416 5.8575 8.82623 5.8575V3.8575C8.88256 3.8575 8.92118 3.86683 8.9496 3.87668C8.97426 3.88523 9.04287 3.91183 9.12324 3.98598L7.76703 5.45592ZM2.76951 7.02379C3.40231 4.82116 6.16131 4.00264 7.77408 5.46236L9.11619 3.97954C6.31404 1.44332 1.85388 2.96774 0.847262 6.47154L2.76951 7.02379ZM2.53489 7.82242C2.6126 7.55842 2.69057 7.29354 2.76813 7.02854L0.84864 6.46679C0.771599 6.73003 0.694072 6.99341 0.616287 7.25766L2.53489 7.82242ZM1.85121 10.1859C2.0701 9.40148 2.30132 8.61593 2.53489 7.82242L0.616287 7.25766C0.383389 8.04886 0.148133 8.84801 -0.0751912 9.64832L1.85121 10.1859ZM1.69506 10.7175C1.74586 10.5482 1.79963 10.3692 1.85063 10.188L-0.0746057 9.64623C-0.120122 9.80799 -0.168859 9.97044 -0.220499 10.1425L1.69506 10.7175ZM14.8208 8.16053C14.7271 8.25418 14.6445 8.33414 14.5641 8.41202L15.9556 9.84859C16.0357 9.77108 16.1285 9.68114 16.2346 9.57509L14.8208 8.16053ZM14.6664 9.44692C14.7369 9.50601 14.7994 9.55842 14.8635 9.61538L16.1919 8.12024C16.1028 8.04112 16.0189 7.97088 15.9506 7.91367L14.6664 9.44692ZM14.3102 9.1295C14.4341 9.2533 14.567 9.36373 14.6664 9.44693L15.9506 7.91367C15.8367 7.81833 15.7744 7.76522 15.7241 7.71494L14.3102 9.1295ZM14.2311 6.60815C13.8932 6.94596 13.6931 7.40542 13.7263 7.91258C13.7584 8.40229 13.9989 8.81831 14.3102 9.1295L15.7241 7.71494C15.6687 7.6596 15.7151 7.67674 15.722 7.78195C15.7254 7.83375 15.717 7.8883 15.6973 7.93754C15.6782 7.98559 15.6547 8.01301 15.645 8.02271L14.2311 6.60815ZM16.7523 6.70158C16.4474 6.39676 16.0386 6.15307 15.5539 6.11232C15.0462 6.06963 14.5777 6.2618 14.2311 6.60815L15.645 8.02271C15.6323 8.03546 15.6007 8.06163 15.5479 8.08188C15.494 8.10251 15.4372 8.10956 15.3864 8.10529C15.2864 8.09689 15.2767 8.05443 15.3385 8.11614L16.7523 6.70158ZM17.1519 7.12183C17.0157 6.97505 16.8876 6.83676 16.7523 6.70159L15.3385 8.11614C15.4422 8.21981 15.544 8.32936 15.6858 8.48215L17.1519 7.12183ZM17.2661 7.24473C17.2263 7.20204 17.1886 7.16142 17.1519 7.12183L15.6858 8.48215C15.7224 8.52159 15.7613 8.56359 15.8026 8.60791L17.2661 7.24473ZM15.9471 7.08099C15.8939 7.14172 15.8437 7.1989 15.7912 7.25717L17.2775 8.59547C17.3401 8.52598 17.3986 8.45919 17.4508 8.39972L15.9471 7.08099ZM16.3741 6.62262C16.2111 6.779 16.0669 6.94438 15.9471 7.08099L17.4508 8.39972C17.5813 8.25086 17.6688 8.15212 17.7588 8.06574L16.3741 6.62262ZM18.7926 6.59208C18.4651 6.27288 18.03 6.09176 17.5642 6.10566C17.1041 6.11939 16.6911 6.31987 16.3758 6.62102L17.7571 8.06734C17.7654 8.05946 17.7226 8.10182 17.6239 8.10477C17.5194 8.10789 17.4367 8.06332 17.3967 8.02441L18.7926 6.59208ZM18.7956 9.05612C19.102 8.73593 19.3065 8.31347 19.3156 7.84234C19.3248 7.36395 19.1297 6.92104 18.793 6.5925L17.3963 8.02399C17.3823 8.01036 17.3602 7.98333 17.3423 7.94106C17.3243 7.89849 17.3151 7.85088 17.316 7.80368C17.3179 7.70447 17.3606 7.66292 17.3506 7.67333L18.7956 9.05612ZM18.317 9.49756C18.4671 9.3677 18.6361 9.2224 18.7949 9.0568L17.3513 7.67264C17.2687 7.75879 17.1734 7.84228 17.0082 7.98527L18.317 9.49756ZM18.1377 9.65374C18.1998 9.599 18.2583 9.54837 18.317 9.49756L17.0082 7.98527C16.9502 8.0355 16.8849 8.09195 16.8149 8.15375L18.1377 9.65374ZM18.3919 8.38181C18.3097 8.30973 18.2359 8.24497 18.1593 8.17331L16.7933 9.63418C16.8967 9.73087 16.9936 9.81569 17.0736 9.88581L18.3919 8.38181ZM18.7871 8.75006C18.6494 8.60667 18.5058 8.48165 18.3919 8.3818L17.0736 9.88581C17.1992 9.99587 17.2767 10.0646 17.3447 10.1355L18.7871 8.75006ZM18.7928 11.2152C19.1269 10.8894 19.3212 10.4479 19.312 9.97054C19.3029 9.49892 19.098 9.07459 18.7881 8.75102L17.3438 10.1345C17.3574 10.1487 17.3143 10.1089 17.3124 10.0092C17.3103 9.9038 17.3572 9.82163 17.3965 9.78329L18.7928 11.2152ZM16.3379 11.1562C16.6466 11.4647 17.0599 11.6866 17.5365 11.7076C18.0218 11.729 18.4637 11.5363 18.793 11.215L17.3963 9.7835C17.4066 9.77346 17.4324 9.75221 17.4762 9.73456C17.5209 9.71658 17.5724 9.70723 17.6246 9.70953C17.7345 9.71438 17.7739 9.76375 17.7518 9.74166L16.3379 11.1562ZM15.9543 10.7124C16.0579 10.84 16.1822 10.9941 16.3231 11.141L17.7667 9.75685C17.693 9.67999 17.6209 9.59212 17.507 9.45182L15.9543 10.7124ZM15.7774 10.4975C15.8385 10.5699 15.8948 10.6391 15.9543 10.7124L17.507 9.45182C17.4487 9.38001 17.3809 9.29653 17.3057 9.20736L15.7774 10.4975ZM17.054 10.7717C17.1225 10.6965 17.1913 10.6211 17.2696 10.538L15.8135 9.16688C15.7226 9.26338 15.6437 9.35007 15.5758 9.42456L17.054 10.7717ZM16.6796 11.1639C16.8176 11.0317 16.9412 10.8955 17.054 10.7717L15.5758 9.42456C15.4539 9.5583 15.3764 9.64268 15.2962 9.71959L16.6796 11.1639ZM14.2325 11.215C14.5643 11.5387 15.0085 11.7299 15.497 11.7035C15.9701 11.678 16.3751 11.4556 16.6796 11.1639L15.2961 9.71959C15.2555 9.75849 15.283 9.71215 15.3894 9.70642C15.4416 9.70361 15.4955 9.71241 15.5439 9.73161C15.5912 9.7504 15.6188 9.77331 15.6293 9.7835L14.2325 11.215ZM14.2525 8.72162C13.9491 9.03782 13.7287 9.45681 13.7105 9.93759C13.6918 10.4314 13.8918 10.8823 14.2323 11.2148L15.6295 9.7837C15.6409 9.79483 15.6638 9.82174 15.6826 9.867C15.7018 9.91298 15.7109 9.96408 15.7091 10.0134C15.7052 10.1151 15.661 10.1424 15.6955 10.1064L14.2525 8.72162ZM14.5641 8.41202C14.4622 8.51075 14.3565 8.613 14.2516 8.72262L15.6965 10.1054C15.7706 10.028 15.8485 9.95236 15.9556 9.84859L14.5641 8.41202ZM5.36045 7.19224C5.2743 7.19224 5.19238 7.19144 5.10821 7.19061L5.08845 9.19051C5.1715 9.19133 5.26295 9.19224 5.36045 9.19224V7.19224ZM4.35951 7.99191C4.35998 8.05745 4.36045 8.1227 4.36045 8.19224H6.36045C6.36045 8.11443 6.35992 8.04226 6.35945 7.97745L4.35951 7.99191ZM4.36985 7.42137C4.35637 7.62358 4.35823 7.81615 4.35951 7.99191L6.35945 7.97745C6.35808 7.78762 6.35771 7.67013 6.36542 7.55447L4.36985 7.42137ZM6.10453 5.75501C5.08995 5.7369 4.39851 6.54559 4.36819 7.45459L6.36708 7.52125C6.3667 7.53258 6.35881 7.59257 6.29584 7.65683C6.22905 7.725 6.13955 7.75595 6.06883 7.75469L6.10453 5.75501ZM7.79799 7.46951C7.76822 6.56175 7.08897 5.75485 6.08668 5.75485V7.75485C6.01283 7.75485 5.92639 7.72158 5.864 7.65657C5.80459 7.59466 5.79921 7.53953 5.79907 7.53508L7.79799 7.46951ZM7.80017 7.94712C7.80169 7.79832 7.80352 7.63537 7.79798 7.46896L5.79909 7.53562C5.80293 7.65093 5.80188 7.7697 5.80028 7.92667L7.80017 7.94712ZM7.79853 8.19224C7.79853 8.10841 7.79934 8.02882 7.80017 7.94712L5.80028 7.92667C5.79945 8.00723 5.79853 8.09667 5.79853 8.19224H7.79853ZM7.03105 7.19065C6.95132 7.19147 6.87572 7.19224 6.79853 7.19224V9.19224C6.88765 9.19224 6.97337 9.19135 7.05167 9.19054L7.03105 7.19065ZM7.52104 7.19276C7.34907 7.18721 7.18057 7.1891 7.03105 7.19065L7.05167 9.19054C7.20871 9.18892 7.33438 9.18778 7.45658 9.19172L7.52104 7.19276ZM9.22942 8.90374C9.22942 7.90663 8.42782 7.22297 7.52211 7.19279L7.45551 9.19168C7.44402 9.1913 7.38737 9.1835 7.32639 9.12464C7.26255 9.063 7.22942 8.97766 7.22942 8.90374H9.22942ZM7.52211 10.6219C8.43459 10.5915 9.22942 9.90172 9.22942 8.90374H7.22942C7.22942 8.8383 7.25895 8.7547 7.32386 8.6916C7.38575 8.63143 7.44384 8.62338 7.45551 8.62299L7.52211 10.6219ZM7.04872 10.6241C7.19818 10.6256 7.35688 10.6274 7.52211 10.6219L7.45551 8.62299C7.34108 8.6268 7.22617 8.62581 7.0689 8.62422L7.04872 10.6241ZM6.79134 10.6224C6.88171 10.6224 6.96504 10.6233 7.04871 10.6241L7.0689 8.62422C6.98611 8.62338 6.89321 8.62244 6.79134 8.62244V10.6224ZM7.79295 9.84654C7.79212 9.77014 7.79134 9.69749 7.79134 9.62244H5.79134C5.79134 9.71 5.79225 9.79321 5.79307 9.86823L7.79295 9.84654ZM7.79075 10.3109C7.79639 10.1474 7.79448 9.98756 7.79295 9.84654L5.79307 9.86823C5.79468 10.0175 5.79574 10.1315 5.79193 10.242L7.79075 10.3109ZM6.10391 12.0597C6.56888 12.0517 7.01321 11.8675 7.33535 11.5103C7.64969 11.1617 7.78463 10.7202 7.79122 10.2918L5.79146 10.2611C5.79086 10.2999 5.78199 10.2464 5.85006 10.1709C5.88301 10.1344 5.92476 10.1041 5.97023 10.0842C6.01509 10.0645 6.05111 10.0603 6.06945 10.06L6.10391 12.0597ZM4.36056 10.2768C4.36702 10.7162 4.50578 11.1689 4.82998 11.5226C5.16332 11.8863 5.62405 12.0678 6.10362 12.0597L6.06974 10.06C6.09109 10.0596 6.1304 10.0633 6.17852 10.0833C6.2272 10.1035 6.27075 10.1346 6.30436 10.1712C6.3733 10.2464 6.36107 10.2967 6.36034 10.2474L4.36056 10.2768ZM4.36045 9.62244V10.2621H6.36045V9.62244H4.36045ZM5.1077 10.6241C5.19183 10.6232 5.27401 10.6224 5.36045 10.6224V8.62244C5.26263 8.62244 5.17089 8.62335 5.08787 8.62418L5.1077 10.6241ZM4.61637 10.6219C4.7868 10.6274 4.95387 10.6256 5.10769 10.6241L5.08788 8.62418C4.92618 8.62578 4.80182 8.62686 4.68082 8.62296L4.61637 10.6219ZM2.92254 8.94418C2.9408 9.91148 3.71948 10.5757 4.59697 10.6211L4.70023 8.62377C4.71593 8.62458 4.76938 8.63425 4.82603 8.68888C4.88502 8.74579 4.9207 8.82766 4.92219 8.90643L2.92254 8.94418ZM4.59149 7.19348C3.66977 7.23955 2.88678 7.96536 2.92303 8.96166L4.9217 8.88895C4.92448 8.96523 4.89352 9.05218 4.8314 9.11602C4.77115 9.17793 4.71073 9.19002 4.69132 9.19099L4.59149 7.19348ZM5.10821 7.19061C4.95304 7.18907 4.78485 7.18727 4.61018 7.19273L4.67263 9.19175C4.79932 9.18779 4.92632 9.18891 5.08845 9.19051L5.10821 7.19061Z" fill="#E60000" mask="url(#path-1-inside-1_1_1010)"/>
    </g>
    </g>
    <defs>
    <filter id="filter0_b_1_1010" x="-11.6832" y="-11.1606" width="45.6" height="39.8342" filterUnits="userSpaceOnUse" color-interpolation-filters="sRGB">
    <feFlood flood-opacity="0" result="BackgroundImageFix"/>
    <feGaussianBlur in="BackgroundImageFix" stdDeviation="6"/>
    <feComposite in2="SourceAlpha" operator="in" result="effect1_backgroundBlur_1_1010"/>
    <feBlend mode="normal" in="SourceGraphic" in2="effect1_backgroundBlur_1_1010" result="shape"/>
    </filter>
    <clipPath id="clip0_1_1010">
    <rect width="21.6" height="15.84" fill="white" transform="translate(0.319946 0.840027)"/>
    </clipPath>
    </defs>
    </svg>
    