<svg width="38" height="27" viewBox="0 0 38 27" fill="none" xmlns="http://www.w3.org/2000/svg">
    <g clip-path="url(#clip0_1_367)">
    <g filter="url(#filter0_b_1_367)">
    <mask id="path-1-inside-1_1_367" fill="white">
    <path fill-rule="evenodd" clip-rule="evenodd" d="M32.1366 0.199997H19.1305H6.13675C4.81783 0.199997 4.45146 0.565451 4.45146 1.84454V15.61C4.45146 16.8769 4.83004 17.2545 6.07569 17.2545H32.1366C33.3822 17.2545 33.7608 16.8769 33.7608 15.61V1.84454C33.7608 0.577633 33.3822 0.199997 32.1366 0.199997ZM2.37539 27H19.0451H35.8491C36.1422 27 36.4597 26.9878 36.7406 26.8904C37.3878 26.6711 37.5832 26.1351 37.2535 25.5382C36.0935 23.419 34.9214 21.3119 33.7493 19.2049L33.7486 19.2036C33.4677 18.7164 33.0647 18.4727 32.5029 18.4727H5.69711C5.13535 18.4727 4.73235 18.7164 4.46368 19.2036L4.46366 19.2037C3.29129 21.3111 2.11893 23.4186 0.958775 25.5382C0.629045 26.1351 0.836653 26.6711 1.4839 26.8904C1.75257 26.9878 2.07009 27 2.37539 27ZM19.8633 24.5663C19.6068 24.565 19.3504 24.5636 19.0939 24.5636C18.8379 24.5636 18.5819 24.565 18.3254 24.5663C17.8112 24.569 17.2951 24.5718 16.7736 24.5636C15.992 24.5515 15.4547 24.0642 15.4425 23.3698C15.4302 22.6511 15.9798 22.1395 16.798 22.1395C18.3368 22.1273 19.8877 22.1273 21.4264 22.1395C22.208 22.1516 22.7454 22.6389 22.7576 23.3333C22.7698 24.0398 22.2202 24.5515 21.402 24.5636C20.8891 24.5718 20.3762 24.569 19.8633 24.5663Z"/>
    </mask>
    <path fill-rule="evenodd" clip-rule="evenodd" d="M32.1366 0.199997H19.1305H6.13675C4.81783 0.199997 4.45146 0.565451 4.45146 1.84454V15.61C4.45146 16.8769 4.83004 17.2545 6.07569 17.2545H32.1366C33.3822 17.2545 33.7608 16.8769 33.7608 15.61V1.84454C33.7608 0.577633 33.3822 0.199997 32.1366 0.199997ZM2.37539 27H19.0451H35.8491C36.1422 27 36.4597 26.9878 36.7406 26.8904C37.3878 26.6711 37.5832 26.1351 37.2535 25.5382C36.0935 23.419 34.9214 21.3119 33.7493 19.2049L33.7486 19.2036C33.4677 18.7164 33.0647 18.4727 32.5029 18.4727H5.69711C5.13535 18.4727 4.73235 18.7164 4.46368 19.2036L4.46366 19.2037C3.29129 21.3111 2.11893 23.4186 0.958775 25.5382C0.629045 26.1351 0.836653 26.6711 1.4839 26.8904C1.75257 26.9878 2.07009 27 2.37539 27ZM19.8633 24.5663C19.6068 24.565 19.3504 24.5636 19.0939 24.5636C18.8379 24.5636 18.5819 24.565 18.3254 24.5663C17.8112 24.569 17.2951 24.5718 16.7736 24.5636C15.992 24.5515 15.4547 24.0642 15.4425 23.3698C15.4302 22.6511 15.9798 22.1395 16.798 22.1395C18.3368 22.1273 19.8877 22.1273 21.4264 22.1395C22.208 22.1516 22.7454 22.6389 22.7576 23.3333C22.7698 24.0398 22.2202 24.5515 21.402 24.5636C20.8891 24.5718 20.3762 24.569 19.8633 24.5663Z" fill="#E60000"/>
    <path d="M36.7406 26.8904L36.4197 25.9432L36.4128 25.9456L36.7406 26.8904ZM37.2535 25.5382L36.3763 26.0183L36.3781 26.0217L37.2535 25.5382ZM33.7493 19.2049L34.6232 18.7188L34.6223 18.7173L33.7493 19.2049ZM33.7486 19.2036L34.6217 18.7159L34.6149 18.7042L33.7486 19.2036ZM4.46368 19.2036L5.33857 19.688L5.33939 19.6865L4.46368 19.2036ZM4.46366 19.2037L5.33754 19.6898L5.33855 19.688L4.46366 19.2037ZM0.958775 25.5382L1.83411 26.0217L1.83597 26.0183L0.958775 25.5382ZM1.4839 26.8904L1.82489 25.9503L1.81486 25.9467L1.80476 25.9432L1.4839 26.8904ZM19.8633 24.5663L19.858 25.5663H19.858L19.8633 24.5663ZM18.3254 24.5663L18.3202 23.5663H18.3202L18.3254 24.5663ZM16.7736 24.5636L16.7892 23.5638H16.7892L16.7736 24.5636ZM15.4425 23.3698L14.4426 23.3868L14.4426 23.3874L15.4425 23.3698ZM16.798 22.1395V23.1395L16.8059 23.1394L16.798 22.1395ZM21.4264 22.1395L21.442 21.1395L21.4344 21.1395L21.4264 22.1395ZM22.7576 23.3333L23.7574 23.316L23.7574 23.3157L22.7576 23.3333ZM21.402 24.5636L21.3871 23.5637L21.3862 23.5638L21.402 24.5636ZM19.1305 1.2H32.1366V-0.800003H19.1305V1.2ZM6.13675 1.2H19.1305V-0.800003H6.13675V1.2ZM5.45147 1.84454C5.45147 1.56222 5.47284 1.39429 5.49793 1.29655C5.51998 1.21061 5.5333 1.22366 5.49933 1.25693C5.46669 1.28891 5.45895 1.27206 5.5566 1.24796C5.66418 1.22141 5.84327 1.2 6.13675 1.2V-0.800003C5.46195 -0.800003 4.66567 -0.726195 4.09969 -0.17171C3.5267 0.38965 3.45146 1.18443 3.45146 1.84454H5.45147ZM5.45147 15.61V1.84454H3.45146V15.61H5.45147ZM6.07569 16.2545C5.80537 16.2545 5.64366 16.233 5.54987 16.2084C5.467 16.1867 5.47677 16.1732 5.50696 16.2037C5.53658 16.2336 5.52133 16.2408 5.49853 16.1522C5.47314 16.0536 5.45147 15.8862 5.45147 15.61H3.45146C3.45146 16.2745 3.53374 17.0535 4.08596 17.6111C4.64135 18.1718 5.41925 18.2545 6.07569 18.2545V16.2545ZM32.1366 16.2545H6.07569V18.2545H32.1366V16.2545ZM32.7608 15.61C32.7608 15.8862 32.7391 16.0536 32.7137 16.1522C32.6909 16.2408 32.6757 16.2336 32.7053 16.2037C32.7355 16.1732 32.7452 16.1867 32.6624 16.2084C32.5686 16.233 32.4069 16.2545 32.1366 16.2545V18.2545C32.793 18.2545 33.5709 18.1718 34.1263 17.6111C34.6785 17.0535 34.7608 16.2745 34.7608 15.61H32.7608ZM32.7608 1.84454V15.61H34.7608V1.84454H32.7608ZM32.1366 1.2C32.4069 1.2 32.5686 1.22157 32.6624 1.24614C32.7452 1.26786 32.7355 1.28136 32.7053 1.25087C32.6757 1.22097 32.6909 1.21373 32.7137 1.30231C32.7391 1.40098 32.7608 1.56834 32.7608 1.84454H34.7608C34.7608 1.18001 34.6785 0.401042 34.1263 -0.156515C33.5709 -0.717278 32.793 -0.800003 32.1366 -0.800003V1.2ZM19.0451 26H2.37539V28H19.0451V26ZM35.8491 26H19.0451V28H35.8491V26ZM36.4128 25.9456C36.3055 25.9828 36.1383 26 35.8491 26V28C36.146 28 36.6139 27.9928 37.0683 27.8351L36.4128 25.9456ZM36.3781 26.0217C36.4105 26.0804 36.4127 26.1064 36.4118 26.0997C36.4113 26.0959 36.4103 26.0844 36.4121 26.0666C36.414 26.0487 36.4186 26.0273 36.4271 26.0047C36.4356 25.9819 36.4466 25.9619 36.4582 25.9456C36.4696 25.9294 36.4796 25.9197 36.4847 25.9153C36.4944 25.9069 36.4801 25.9228 36.4197 25.9432L37.0614 27.8375C37.5886 27.6589 38.0791 27.295 38.2997 26.7071C38.5183 26.1242 38.3923 25.5318 38.1288 25.0547L36.3781 26.0217ZM32.8754 19.691C34.0478 21.7986 35.2183 23.9026 36.3763 26.0183L38.1307 25.0581C36.9688 22.9353 35.795 20.8253 34.6232 18.7188L32.8754 19.691ZM32.8755 19.6913L32.8762 19.6926L34.6223 18.7173L34.6216 18.716L32.8755 19.6913ZM32.5029 19.4727C32.6345 19.4727 32.6939 19.4996 32.7222 19.5163C32.7523 19.5341 32.8102 19.5782 32.8822 19.703L34.6149 18.7042C34.406 18.3418 34.122 18.0204 33.7399 17.7946C33.3561 17.5677 32.9331 17.4727 32.5029 17.4727V19.4727ZM5.69711 19.4727H32.5029V17.4727H5.69711V19.4727ZM5.33939 19.6865C5.40419 19.569 5.45672 19.5298 5.48216 19.5146C5.50691 19.4999 5.5648 19.4727 5.69711 19.4727V17.4727C5.26767 17.4727 4.84317 17.5674 4.45882 17.7963C4.07514 18.0248 3.79184 18.351 3.58797 18.7208L5.33939 19.6865ZM5.33855 19.688L5.33857 19.688L3.58879 18.7193L3.58876 18.7194L5.33855 19.688ZM1.83597 26.0183C2.9942 23.9022 4.1649 21.7978 5.33754 19.6898L3.58978 18.7175C2.41769 20.8245 1.24365 22.9349 0.081575 25.0581L1.83597 26.0183ZM1.80476 25.9432C1.74343 25.9225 1.72667 25.9056 1.73375 25.9117C1.73755 25.915 1.74651 25.9235 1.7572 25.9383C1.76802 25.9533 1.7787 25.9721 1.78724 25.9941C1.79577 26.0161 1.80062 26.0373 1.80276 26.0557C1.80487 26.074 1.80397 26.0864 1.80334 26.0916C1.80217 26.1012 1.80306 26.0779 1.8341 26.0217L0.0834457 25.0547C-0.183954 25.5387 -0.30326 26.1354 -0.0772939 26.7177C0.148619 27.2998 0.639059 27.66 1.16304 27.8375L1.80476 25.9432ZM2.37539 26C2.06604 26 1.91029 25.9813 1.82489 25.9503L1.14291 27.8304C1.59485 27.9944 2.07413 28 2.37539 28V26ZM19.0939 25.5636C19.3473 25.5636 19.6011 25.565 19.858 25.5663L19.8686 23.5664C19.6125 23.565 19.3534 23.5636 19.0939 23.5636V25.5636ZM18.3307 25.5663C18.5876 25.565 18.841 25.5636 19.0939 25.5636V23.5636C18.8348 23.5636 18.5762 23.565 18.3202 23.5663L18.3307 25.5663ZM16.758 25.5635C17.2917 25.5718 17.8181 25.569 18.3307 25.5663L18.3202 23.5663C17.8043 23.5691 17.2986 23.5717 16.7892 23.5638L16.758 25.5635ZM14.4426 23.3874C14.4534 24.0023 14.7038 24.5639 15.1507 24.9659C15.5904 25.3615 16.1639 25.5543 16.758 25.5635L16.7892 23.5638C16.6017 23.5608 16.5158 23.5038 16.4884 23.4791C16.4681 23.4609 16.4437 23.4317 16.4423 23.3522L14.4426 23.3874ZM16.798 21.1395C16.1815 21.1395 15.5855 21.3343 15.134 21.7471C14.6747 22.1671 14.4319 22.7541 14.4426 23.3868L16.4423 23.3528C16.4415 23.3039 16.4501 23.2757 16.456 23.2616C16.4619 23.2477 16.47 23.2356 16.4836 23.2231C16.5084 23.2004 16.5963 23.1395 16.798 23.1395V21.1395ZM21.4344 21.1395C19.8903 21.1273 18.3341 21.1273 16.7901 21.1395L16.8059 23.1394C18.3394 23.1273 19.8851 23.1273 21.4185 23.1394L21.4344 21.1395ZM23.7574 23.3157C23.7466 22.7008 23.4963 22.1392 23.0494 21.7371C22.6097 21.3415 22.0362 21.1488 21.442 21.1396L21.4109 23.1393C21.5983 23.1423 21.6843 23.1993 21.7117 23.2239C21.7319 23.2421 21.7563 23.2714 21.7577 23.3509L23.7574 23.3157ZM21.4169 25.5635C22.0294 25.5544 22.6191 25.3555 23.066 24.9468C23.5213 24.5305 23.7684 23.9484 23.7574 23.316L21.7577 23.3506C21.7585 23.3939 21.7507 23.4187 21.7454 23.4313C21.7401 23.4438 21.7319 23.4567 21.7164 23.4708C21.6871 23.4977 21.5929 23.5607 21.3871 23.5637L21.4169 25.5635ZM19.858 25.5663C20.3692 25.569 20.8926 25.5718 21.4179 25.5635L21.3862 23.5638C20.8856 23.5717 20.3832 23.5691 19.8686 23.5664L19.858 25.5663Z" fill="#E60000" mask="url(#path-1-inside-1_1_367)"/>
    </g>
    </g>
    <defs>
    <filter id="filter0_b_1_367" x="-11.1959" y="-11.8" width="60.6071" height="50.8" filterUnits="userSpaceOnUse" color-interpolation-filters="sRGB">
    <feFlood flood-opacity="0" result="BackgroundImageFix"/>
    <feGaussianBlur in="BackgroundImageFix" stdDeviation="6"/>
    <feComposite in2="SourceAlpha" operator="in" result="effect1_backgroundBlur_1_367"/>
    <feBlend mode="normal" in="SourceGraphic" in2="effect1_backgroundBlur_1_367" result="shape"/>
    </filter>
    <clipPath id="clip0_1_367">
    <rect width="36.6" height="26.8" fill="white" transform="translate(0.800049 0.199997)"/>
    </clipPath>
    </defs>
    </svg>
    