<svg width="13" height="23" viewBox="0 0 13 23" fill="none" xmlns="http://www.w3.org/2000/svg">
    <g clip-path="url(#clip0_1_973)">
    <g filter="url(#filter0_b_1_973)">
    <path d="M0.239937 11.76C0.239937 8.97398 0.233191 6.18122 0.239937 3.39521C0.239937 2.24843 0.820074 1.41195 1.83869 1.08141C2.08154 1.00046 2.34462 0.966729 2.60096 0.966729C4.95524 0.959983 7.30952 0.959983 9.65705 0.966729C11.0264 0.973475 12.0248 1.96511 12.0248 3.32775C12.0316 8.95374 12.0316 14.573 12.0248 20.199C12.0248 21.5616 11.0264 22.56 9.6638 22.56C7.3365 22.5667 5.00921 22.5667 2.68191 22.56C1.22482 22.56 0.253428 21.6021 0.246682 20.1315C0.233191 17.3387 0.239937 14.5527 0.239937 11.76ZM6.13575 2.92301C5.67704 2.92301 5.21833 2.92301 4.75287 2.92301C4.38859 2.92975 4.18622 3.0984 4.17948 3.39521C4.17273 3.69877 4.36161 3.90789 4.71239 3.90789C5.6568 3.92138 6.59447 3.92138 7.53888 3.90789C7.87616 3.90115 8.10552 3.67179 8.09203 3.39521C8.07854 3.11189 7.85593 2.92301 7.51189 2.92301C7.05318 2.92301 6.59447 2.92301 6.13575 2.92301ZM6.13575 18.6474C5.5826 18.6474 5.14412 19.0859 5.15087 19.6256C5.15761 20.1652 5.60958 20.6037 6.14924 20.597C6.67542 20.5902 7.1004 20.1585 7.1004 19.6256C7.10714 19.0657 6.68891 18.6474 6.13575 18.6474Z" fill="#E60000"/>
    <path d="M4.75287 2.42292V2.42301H4.75559H4.75832H4.76105H4.76377H4.7665H4.76923H4.77195H4.77468H4.77741H4.78013H4.78286H4.78558H4.78831H4.79103H4.79376H4.79648H4.79921H4.80193H4.80466H4.80738H4.81011H4.81283H4.81555H4.81828H4.821H4.82372H4.82645H4.82917H4.83189H4.83462H4.83734H4.84006H4.84278H4.84551H4.84823H4.85095H4.85367H4.85639H4.85912H4.86184H4.86456H4.86728H4.87H4.87272H4.87544H4.87816H4.88088H4.8836H4.88632H4.88904H4.89176H4.89448H4.8972H4.89992H4.90264H4.90536H4.90808H4.9108H4.91352H4.91624H4.91896H4.92167H4.92439H4.92711H4.92983H4.93255H4.93526H4.93798H4.9407H4.94342H4.94613H4.94885H4.95157H4.95428H4.957H4.95972H4.96243H4.96515H4.96787H4.97058H4.9733H4.97601H4.97873H4.98144H4.98416H4.98688H4.98959H4.99231H4.99502H4.99773H5.00045H5.00316H5.00588H5.00859H5.01131H5.01402H5.01673H5.01945H5.02216H5.02487H5.02759H5.0303H5.03301H5.03573H5.03844H5.04115H5.04387H5.04658H5.04929H5.052H5.05471H5.05743H5.06014H5.06285H5.06556H5.06827H5.07098H5.0737H5.07641H5.07912H5.08183H5.08454H5.08725H5.08996H5.09267H5.09538H5.09809H5.1008H5.10351H5.10622H5.10893H5.11164H5.11435H5.11706H5.11977H5.12248H5.12519H5.1279H5.1306H5.13331H5.13602H5.13873H5.14144H5.14415H5.14685H5.14956H5.15227H5.15498H5.15769H5.16039H5.1631H5.16581H5.16852H5.17122H5.17393H5.17664H5.17934H5.18205H5.18476H5.18746H5.19017H5.19288H5.19558H5.19829H5.20099H5.2037H5.20641H5.20911H5.21182H5.21452H5.21723H5.21993H5.22264H5.22534H5.22805H5.23075H5.23346H5.23616H5.23887H5.24157H5.24428H5.24698H5.24968H5.25239H5.25509H5.2578H5.2605H5.2632H5.26591H5.26861H5.27131H5.27402H5.27672H5.27942H5.28213H5.28483H5.28753H5.29024H5.29294H5.29564H5.29834H5.30105H5.30375H5.30645H5.30915H5.31185H5.31456H5.31726H5.31996H5.32266H5.32536H5.32806H5.33076H5.33347H5.33617H5.33887H5.34157H5.34427H5.34697H5.34967H5.35237H5.35507H5.35777H5.36047H5.36317H5.36587H5.36857H5.37127H5.37397H5.37667H5.37937H5.38207H5.38477H5.38747H5.39017H5.39287H5.39557H5.39827H5.40097H5.40367H5.40637H5.40906H5.41176H5.41446H5.41716H5.41986H5.42256H5.42526H5.42795H5.43065H5.43335H5.43605H5.43875H5.44144H5.44414H5.44684H5.44954H5.45223H5.45493H5.45763H5.46033H5.46302H5.46572H5.46842H5.47112H5.47381H5.47651H5.47921H5.4819H5.4846H5.4873H5.48999H5.49269H5.49538H5.49808H5.50078H5.50347H5.50617H5.50887H5.51156H5.51426H5.51695H5.51965H5.52234H5.52504H5.52774H5.53043H5.53313H5.53582H5.53852H5.54121H5.54391H5.5466H5.5493H5.55199H5.55469H5.55738H5.56008H5.56277H5.56547H5.56816H5.57085H5.57355H5.57624H5.57894H5.58163H5.58433H5.58702H5.58971H5.59241H5.5951H5.5978H5.60049H5.60318H5.60588H5.60857H5.61126H5.61396H5.61665H5.61934H5.62204H5.62473H5.62742H5.63012H5.63281H5.6355H5.6382H5.64089H5.64358H5.64627H5.64897H5.65166H5.65435H5.65705H5.65974H5.66243H5.66512H5.66782H5.67051H5.6732H5.67589H5.67858H5.68128H5.68397H5.68666H5.68935H5.69204H5.69474H5.69743H5.70012H5.70281H5.7055H5.70819H5.71089H5.71358H5.71627H5.71896H5.72165H5.72434H5.72703H5.72973H5.73242H5.73511H5.7378H5.74049H5.74318H5.74587H5.74856H5.75125H5.75394H5.75664H5.75933H5.76202H5.76471H5.7674H5.77009H5.77278H5.77547H5.77816H5.78085H5.78354H5.78623H5.78892H5.79161H5.7943H5.79699H5.79968H5.80237H5.80506H5.80775H5.81044H5.81313H5.81582H5.81851H5.8212H5.82389H5.82658H5.82927H5.83196H5.83465H5.83734H5.84003H5.84272H5.84541H5.8481H5.85079H5.85348H5.85617H5.85886H5.86155H5.86424H5.86692H5.86961H5.8723H5.87499H5.87768H5.88037H5.88306H5.88575H5.88844H5.89113H5.89382H5.8965H5.89919H5.90188H5.90457H5.90726H5.90995H5.91264H5.91533H5.91802H5.9207H5.92339H5.92608H5.92877H5.93146H5.93415H5.93684H5.93953H5.94221H5.9449H5.94759H5.95028H5.95297H5.95566H5.95834H5.96103H5.96372H5.96641H5.9691H5.97179H5.97447H5.97716H5.97985H5.98254H5.98523H5.98792H5.9906H5.99329H5.99598H5.99867H6.00136H6.00405H6.00673H6.00942H6.01211H6.0148H6.01749H6.02017H6.02286H6.02555H6.02824H6.03093H6.03361H6.0363H6.03899H6.04168H6.04437H6.04705H6.04974H6.05243H6.05512H6.05781H6.06049H6.06318H6.06587H6.06856H6.07125H6.07393H6.07662H6.07931H6.082H6.08468H6.08737H6.09006H6.09275H6.09544H6.09812H6.10081H6.1035H6.10619H6.10887H6.11156H6.11425H6.11694H6.11963H6.12231H6.125H6.12769H6.13038H6.13306H6.13575H6.13844H6.14113H6.14382H6.1465H6.14919H6.15188H6.15457H6.15725H6.15994H6.16263H6.16532H6.16801H6.17069H6.17338H6.17607H6.17876H6.18144H6.18413H6.18682H6.18951H6.1922H6.19488H6.19757H6.20026H6.20295H6.20563H6.20832H6.21101H6.2137H6.21639H6.21907H6.22176H6.22445H6.22714H6.22982H6.23251H6.2352H6.23789H6.24058H6.24326H6.24595H6.24864H6.25133H6.25401H6.2567H6.25939H6.26208H6.26477H6.26745H6.27014H6.27283H6.27552H6.2782H6.28089H6.28358H6.28627H6.28896H6.29164H6.29433H6.29702H6.29971H6.30239H6.30508H6.30777H6.31046H6.31315H6.31583H6.31852H6.32121H6.3239H6.32658H6.32927H6.33196H6.33465H6.33734H6.34002H6.34271H6.3454H6.34809H6.35077H6.35346H6.35615H6.35884H6.36153H6.36421H6.3669H6.36959H6.37228H6.37496H6.37765H6.38034H6.38303H6.38572H6.3884H6.39109H6.39378H6.39647H6.39915H6.40184H6.40453H6.40722H6.40991H6.41259H6.41528H6.41797H6.42066H6.42334H6.42603H6.42872H6.43141H6.4341H6.43678H6.43947H6.44216H6.44485H6.44753H6.45022H6.45291H6.4556H6.45829H6.46097H6.46366H6.46635H6.46904H6.47172H6.47441H6.4771H6.47979H6.48248H6.48516H6.48785H6.49054H6.49323H6.49591H6.4986H6.50129H6.50398H6.50667H6.50935H6.51204H6.51473H6.51742H6.5201H6.52279H6.52548H6.52817H6.53086H6.53354H6.53623H6.53892H6.54161H6.54429H6.54698H6.54967H6.55236H6.55505H6.55773H6.56042H6.56311H6.5658H6.56848H6.57117H6.57386H6.57655H6.57924H6.58192H6.58461H6.5873H6.58999H6.59267H6.59536H6.59805H6.60074H6.60343H6.60611H6.6088H6.61149H6.61418H6.61686H6.61955H6.62224H6.62493H6.62761H6.6303H6.63299H6.63568H6.63837H6.64105H6.64374H6.64643H6.64912H6.6518H6.65449H6.65718H6.65987H6.66256H6.66524H6.66793H6.67062H6.67331H6.67599H6.67868H6.68137H6.68406H6.68675H6.68943H6.69212H6.69481H6.6975H6.70018H6.70287H6.70556H6.70825H6.71094H6.71362H6.71631H6.719H6.72169H6.72437H6.72706H6.72975H6.73244H6.73513H6.73781H6.7405H6.74319H6.74588H6.74856H6.75125H6.75394H6.75663H6.75932H6.762H6.76469H6.76738H6.77007H6.77275H6.77544H6.77813H6.78082H6.78351H6.78619H6.78888H6.79157H6.79426H6.79694H6.79963H6.80232H6.80501H6.8077H6.81038H6.81307H6.81576H6.81845H6.82113H6.82382H6.82651H6.8292H6.83189H6.83457H6.83726H6.83995H6.84264H6.84532H6.84801H6.8507H6.85339H6.85608H6.85876H6.86145H6.86414H6.86683H6.86951H6.8722H6.87489H6.87758H6.88027H6.88295H6.88564H6.88833H6.89102H6.8937H6.89639H6.89908H6.90177H6.90446H6.90714H6.90983H6.91252H6.91521H6.91789H6.92058H6.92327H6.92596H6.92865H6.93133H6.93402H6.93671H6.9394H6.94208H6.94477H6.94746H6.95015H6.95284H6.95552H6.95821H6.9609H6.96359H6.96627H6.96896H6.97165H6.97434H6.97703H6.97971H6.9824H6.98509H6.98778H6.99046H6.99315H6.99584H6.99853H7.00122H7.0039H7.00659H7.00928H7.01197H7.01465H7.01734H7.02003H7.02272H7.02541H7.02809H7.03078H7.03347H7.03616H7.03884H7.04153H7.04422H7.04691H7.0496H7.05228H7.05497H7.05766H7.06035H7.06303H7.06572H7.06841H7.0711H7.07379H7.07647H7.07916H7.08185H7.08454H7.08722H7.08991H7.0926H7.09529H7.09798H7.10066H7.10335H7.10604H7.10873H7.11141H7.1141H7.11679H7.11948H7.12217H7.12485H7.12754H7.13023H7.13292H7.1356H7.13829H7.14098H7.14367H7.14636H7.14904H7.15173H7.15442H7.15711H7.15979H7.16248H7.16517H7.16786H7.17055H7.17323H7.17592H7.17861H7.1813H7.18398H7.18667H7.18936H7.19205H7.19474H7.19742H7.20011H7.2028H7.20549H7.20817H7.21086H7.21355H7.21624H7.21892H7.22161H7.2243H7.22699H7.22968H7.23236H7.23505H7.23774H7.24043H7.24311H7.2458H7.24849H7.25118H7.25387H7.25655H7.25924H7.26193H7.26462H7.2673H7.26999H7.27268H7.27537H7.27806H7.28074H7.28343H7.28612H7.28881H7.29149H7.29418H7.29687H7.29956H7.30225H7.30493H7.30762H7.31031H7.313H7.31568H7.31837H7.32106H7.32375H7.32644H7.32912H7.33181H7.3345H7.33719H7.33987H7.34256H7.34525H7.34794H7.35063H7.35331H7.356H7.35869H7.36138H7.36406H7.36675H7.36944H7.37213H7.37482H7.3775H7.38019H7.38288H7.38557H7.38825H7.39094H7.39363H7.39632H7.39901H7.40169H7.40438H7.40707H7.40976H7.41244H7.41513H7.41782H7.42051H7.4232H7.42588H7.42857H7.43126H7.43395H7.43663H7.43932H7.44201H7.4447H7.44739H7.45007H7.45276H7.45545H7.45814H7.46082H7.46351H7.4662H7.46889H7.47158H7.47426H7.47695H7.47964H7.48233H7.48501H7.4877H7.49039H7.49308H7.49577H7.49845H7.50114H7.50383H7.50652H7.5092H7.51189C7.77313 2.42301 8.03523 2.49516 8.24377 2.6669C8.4584 2.84365 8.57819 3.09577 8.59144 3.37085C8.59145 3.37104 8.59145 3.37124 8.59146 3.37143L8.09203 3.39521C8.10552 3.67179 7.87616 3.90115 7.53888 3.90789L4.75287 2.42292ZM4.75287 2.42292L4.74361 2.42309C4.49362 2.42772 4.2272 2.48845 4.01366 2.66485C3.78654 2.85247 3.6857 3.11574 3.6796 3.38385L3.6796 3.3841C3.67384 3.64302 3.75267 3.9133 3.95831 4.11894C4.16247 4.3231 4.43502 4.40708 4.70841 4.40789L4.75287 2.42292ZM0.739937 3.39642V3.39521C0.739937 2.44551 1.19856 1.8148 1.99302 1.55699L1.99302 1.55701L1.9968 1.55575C2.17827 1.49526 2.38618 1.46673 2.60096 1.46673L2.60239 1.46673C4.95554 1.45998 7.30868 1.45998 9.65507 1.46673C10.7532 1.47236 11.5248 2.24464 11.5248 3.32775V3.32835C11.5316 8.95394 11.5316 14.5728 11.5248 20.1984V20.199C11.5248 21.2855 10.7503 22.06 9.6638 22.06L9.66235 22.06C7.33602 22.0667 5.00969 22.0667 2.68336 22.06H2.68191C2.06515 22.06 1.59158 21.8594 1.27292 21.5426C0.954412 21.226 0.749536 20.7525 0.746677 20.1292L0.746677 20.1291C0.736566 18.0362 0.737828 15.9476 0.739093 13.8555C0.739515 13.1575 0.739937 12.4591 0.739937 11.76C0.739937 10.8307 0.739187 9.90109 0.738437 8.97147C0.736938 7.11238 0.735439 5.25324 0.739937 3.39642ZM6.15549 21.0969L6.15565 21.0969C6.95752 21.0866 7.59878 20.4307 7.6004 19.6286C7.60895 18.7906 6.96531 18.1474 6.13575 18.1474C5.31223 18.1474 4.64058 18.8054 4.65091 19.6318C4.66112 20.4492 5.34127 21.1071 6.15549 21.0969Z" stroke="#E60000"/>
    </g>
    </g>
    <defs>
    <filter id="filter0_b_1_973" x="-11.7631" y="-11.0383" width="35.793" height="45.6034" filterUnits="userSpaceOnUse" color-interpolation-filters="sRGB">
    <feFlood flood-opacity="0" result="BackgroundImageFix"/>
    <feGaussianBlur in="BackgroundImageFix" stdDeviation="6"/>
    <feComposite in2="SourceAlpha" operator="in" result="effect1_backgroundBlur_1_973"/>
    <feBlend mode="normal" in="SourceGraphic" in2="effect1_backgroundBlur_1_973" result="shape"/>
    </filter>
    <clipPath id="clip0_1_973">
    <rect width="11.7849" height="21.6" fill="white" transform="translate(0.23999 0.959961)"/>
    </clipPath>
    </defs>
    </svg>
    