<svg width="21" height="16" viewBox="0 0 21 16" fill="none" xmlns="http://www.w3.org/2000/svg">
    <g filter="url(#filter0_b_1_1021)">
    <mask id="path-1-inside-1_1_1021" fill="white">
    <path fill-rule="evenodd" clip-rule="evenodd" d="M9.58694 3.55651C9.76189 3.55581 9.9366 3.55512 10.1106 3.55512C10.2907 3.55512 10.4715 3.55581 10.6527 3.55651C11.0166 3.55791 11.3823 3.55932 11.7481 3.55512C12.3149 3.54253 12.6361 3.22149 12.6424 2.64867C12.6487 2.14509 12.6487 1.64151 12.6424 1.13793C12.6424 0.539929 12.3086 0.200012 11.7103 0.200012H8.52981C7.93779 0.206307 7.61029 0.539929 7.60399 1.14423V2.62349C7.60399 3.22779 7.92519 3.54882 8.5361 3.55512C8.88483 3.55932 9.23635 3.55791 9.58694 3.55651ZM16.6669 5.24211H10.1169H3.59846C2.40184 5.24211 1.74054 5.90306 1.72795 7.11165C1.72165 7.64041 1.60199 7.76001 1.07925 7.76001C1.05382 7.76001 1.0291 7.7593 1.00462 7.75859C0.95634 7.7572 0.908966 7.75583 0.858819 7.76001C0.392765 7.79148 0.0526712 8.11881 0.0463732 8.59092C0.0400752 9.71138 0.0400752 10.8381 0.0526712 11.9586C0.0526712 12.4433 0.399063 12.7706 0.89031 12.7958H1.20521C1.5705 12.8084 1.71535 12.9469 1.73425 13.312V13.5952C1.75314 14.615 2.45222 15.3074 3.4725 15.3137C4.29125 15.32 5.10999 15.32 5.92873 15.3137C6.6656 15.3137 7.3332 15.0934 7.92521 14.6591C8.1362 14.5017 8.34562 14.3443 8.55504 14.1869C8.76444 14.0296 8.97384 13.8722 9.18482 13.7148C9.84611 13.2239 10.4255 13.2239 11.0868 13.7211C11.2752 13.8596 11.4623 14.0004 11.6499 14.1416C11.8887 14.3214 12.1282 14.5016 12.3716 14.6779C12.8062 14.999 13.2911 15.2382 13.8391 15.2634C14.6602 15.3019 15.4862 15.3067 16.3128 15.3116C16.4308 15.3122 16.5489 15.3129 16.6669 15.3137C17.8257 15.32 18.5122 14.6402 18.5185 13.4882C18.5248 12.8965 18.6256 12.7958 19.2176 12.7958C19.8789 12.7958 20.2064 12.4748 20.2064 11.8201V8.7357C20.2064 8.08104 19.8789 7.76001 19.2176 7.76001C18.6256 7.75371 18.5248 7.65929 18.5185 7.06759C18.5059 5.91565 17.8257 5.24211 16.6669 5.24211Z"/>
    </mask>
    <path fill-rule="evenodd" clip-rule="evenodd" d="M9.58694 3.55651C9.76189 3.55581 9.9366 3.55512 10.1106 3.55512C10.2907 3.55512 10.4715 3.55581 10.6527 3.55651C11.0166 3.55791 11.3823 3.55932 11.7481 3.55512C12.3149 3.54253 12.6361 3.22149 12.6424 2.64867C12.6487 2.14509 12.6487 1.64151 12.6424 1.13793C12.6424 0.539929 12.3086 0.200012 11.7103 0.200012H8.52981C7.93779 0.206307 7.61029 0.539929 7.60399 1.14423V2.62349C7.60399 3.22779 7.92519 3.54882 8.5361 3.55512C8.88483 3.55932 9.23635 3.55791 9.58694 3.55651ZM16.6669 5.24211H10.1169H3.59846C2.40184 5.24211 1.74054 5.90306 1.72795 7.11165C1.72165 7.64041 1.60199 7.76001 1.07925 7.76001C1.05382 7.76001 1.0291 7.7593 1.00462 7.75859C0.95634 7.7572 0.908966 7.75583 0.858819 7.76001C0.392765 7.79148 0.0526712 8.11881 0.0463732 8.59092C0.0400752 9.71138 0.0400752 10.8381 0.0526712 11.9586C0.0526712 12.4433 0.399063 12.7706 0.89031 12.7958H1.20521C1.5705 12.8084 1.71535 12.9469 1.73425 13.312V13.5952C1.75314 14.615 2.45222 15.3074 3.4725 15.3137C4.29125 15.32 5.10999 15.32 5.92873 15.3137C6.6656 15.3137 7.3332 15.0934 7.92521 14.6591C8.1362 14.5017 8.34562 14.3443 8.55504 14.1869C8.76444 14.0296 8.97384 13.8722 9.18482 13.7148C9.84611 13.2239 10.4255 13.2239 11.0868 13.7211C11.2752 13.8596 11.4623 14.0004 11.6499 14.1416C11.8887 14.3214 12.1282 14.5016 12.3716 14.6779C12.8062 14.999 13.2911 15.2382 13.8391 15.2634C14.6602 15.3019 15.4862 15.3067 16.3128 15.3116C16.4308 15.3122 16.5489 15.3129 16.6669 15.3137C17.8257 15.32 18.5122 14.6402 18.5185 13.4882C18.5248 12.8965 18.6256 12.7958 19.2176 12.7958C19.8789 12.7958 20.2064 12.4748 20.2064 11.8201V8.7357C20.2064 8.08104 19.8789 7.76001 19.2176 7.76001C18.6256 7.75371 18.5248 7.65929 18.5185 7.06759C18.5059 5.91565 17.8257 5.24211 16.6669 5.24211Z" fill="#E60000"/>
    <path d="M9.58694 3.55651L9.59094 4.5565H9.59094L9.58694 3.55651ZM10.6527 3.55651L10.6566 2.55652L10.6527 3.55651ZM11.7481 3.55512L11.7596 4.55511L11.7703 4.55487L11.7481 3.55512ZM12.6424 2.64867L11.6425 2.63617L11.6425 2.63768L12.6424 2.64867ZM12.6424 1.13793H11.6423L11.6425 1.15044L12.6424 1.13793ZM8.52981 0.200012V-0.800044L8.51917 -0.799931L8.52981 0.200012ZM7.60399 1.14423L6.60399 1.1338V1.14423H7.60399ZM8.5361 3.55512L8.54815 2.55519L8.54641 2.55517L8.5361 3.55512ZM1.72795 7.11165L2.72788 7.12356L2.72789 7.12207L1.72795 7.11165ZM1.00462 7.75859L1.03345 6.75901L1.03344 6.75901L1.00462 7.75859ZM0.858819 7.76001L0.926198 8.75774L0.934014 8.75721L0.94182 8.75656L0.858819 7.76001ZM0.0463732 8.59092L-0.953568 8.57758L-0.953611 8.5853L0.0463732 8.59092ZM0.0526712 11.9586H1.05273L1.05261 11.9474L0.0526712 11.9586ZM0.89031 12.7958L0.839122 13.7945L0.864699 13.7958H0.89031V12.7958ZM1.20521 12.7958L1.23966 11.7964L1.22244 11.7958H1.20521V12.7958ZM1.73425 13.312H2.73425V13.2861L2.73291 13.2603L1.73425 13.312ZM1.73425 13.5952H0.734246V13.6045L0.734417 13.6138L1.73425 13.5952ZM3.4725 15.3137L3.48019 14.3137L3.47867 14.3137L3.4725 15.3137ZM5.92873 15.3137V14.3137L5.92105 14.3137L5.92873 15.3137ZM7.92521 14.6591L8.51676 15.4654L8.52309 15.4606L7.92521 14.6591ZM8.55504 14.1869L9.1558 14.9864L9.1558 14.9864L8.55504 14.1869ZM9.18482 13.7148L8.58869 12.912L8.58693 12.9133L9.18482 13.7148ZM11.0868 13.7211L10.4858 14.5204L10.4946 14.5269L11.0868 13.7211ZM11.6499 14.1416L12.2513 13.3427L11.6499 14.1416ZM12.3716 14.6779L12.9658 13.8736L12.9582 13.868L12.3716 14.6779ZM13.8391 15.2634L13.886 14.2645L13.885 14.2644L13.8391 15.2634ZM16.3128 15.3116L16.307 16.3115H16.307L16.3128 15.3116ZM16.6669 15.3137L16.6602 16.3137L16.6614 16.3137L16.6669 15.3137ZM18.5185 13.4882L17.5185 13.4776L17.5185 13.4828L18.5185 13.4882ZM19.2176 7.76001L19.2069 8.76001H19.2176V7.76001ZM18.5185 7.06759L19.5184 7.05694L19.5184 7.05665L18.5185 7.06759ZM10.1106 2.55512C9.93427 2.55512 9.75756 2.55582 9.58295 2.55652L9.59094 4.5565C9.76622 4.5558 9.93893 4.55512 10.1106 4.55512V2.55512ZM10.6566 2.55652C10.4756 2.55582 10.2929 2.55512 10.1106 2.55512V4.55512C10.2884 4.55512 10.4673 4.5558 10.6489 4.5565L10.6566 2.55652ZM11.7366 2.55518C11.3798 2.55928 11.0217 2.55792 10.6566 2.55652L10.6489 4.5565C11.0115 4.5579 11.3849 4.55936 11.7596 4.55505L11.7366 2.55518ZM11.6425 2.63768C11.6419 2.68988 11.6344 2.70387 11.6387 2.69185C11.6441 2.67686 11.6603 2.64333 11.6949 2.60834C11.7295 2.57339 11.7629 2.55687 11.778 2.55127C11.7901 2.54676 11.7768 2.55423 11.7259 2.55536L11.7703 4.55487C12.2355 4.54454 12.7336 4.40178 13.116 4.01562C13.4987 3.62918 13.6372 3.12849 13.6424 2.65967L11.6425 2.63768ZM11.6425 1.15044C11.6487 1.64568 11.6487 2.14092 11.6425 2.63617L13.6423 2.66118C13.6487 2.14926 13.6487 1.63734 13.6423 1.12543L11.6425 1.15044ZM11.7103 1.20001C11.7667 1.20001 11.7831 1.20815 11.7721 1.20425C11.7663 1.20216 11.7544 1.1972 11.7388 1.18752C11.7231 1.17773 11.7064 1.16471 11.6903 1.1485C11.6743 1.1323 11.6617 1.1157 11.6524 1.10058C11.6433 1.08566 11.6389 1.0746 11.6372 1.06985C11.6342 1.06121 11.6424 1.07988 11.6424 1.13793H13.6424C13.6424 0.657048 13.5054 0.138918 13.1111 -0.259062C12.7154 -0.658492 12.1963 -0.799988 11.7103 -0.799988V1.20001ZM8.52981 1.20001H11.7103V-0.799988H8.52981V1.20001ZM8.60394 1.15465C8.6046 1.09116 8.61353 1.0684 8.61162 1.07382C8.61049 1.07704 8.60661 1.08702 8.59798 1.10122C8.58921 1.11563 8.57703 1.13193 8.56118 1.14809C8.54531 1.16427 8.52859 1.17743 8.51276 1.18744C8.49712 1.19733 8.48502 1.20246 8.47897 1.20467C8.46771 1.20878 8.48378 1.20056 8.54044 1.19996L8.51917 -0.799931C8.03975 -0.794834 7.52564 -0.652341 7.13333 -0.252354C6.74384 0.144755 6.609 0.658657 6.60405 1.1338L8.60394 1.15465ZM8.60399 2.62349V1.14423H6.60399V2.62349H8.60399ZM8.54641 2.55517C8.47805 2.55447 8.45468 2.54509 8.46175 2.54755C8.46601 2.54903 8.47784 2.55365 8.49429 2.56371C8.51101 2.57393 8.52964 2.58803 8.54788 2.60626C8.56613 2.62451 8.58063 2.64352 8.5914 2.66117C8.60202 2.67856 8.60722 2.69166 8.60925 2.69754C8.61283 2.70795 8.60399 2.68818 8.60399 2.62349H6.60399C6.60399 3.09613 6.73189 3.61891 7.13404 4.02085C7.5344 4.421 8.05556 4.55022 8.5258 4.55506L8.54641 2.55517ZM9.58295 2.55652C9.23098 2.55793 8.8875 2.55928 8.54815 2.55519L8.52406 4.55504C8.88215 4.55936 9.24173 4.5579 9.59094 4.5565L9.58295 2.55652ZM10.1169 6.24211H16.6669V4.24211H10.1169V6.24211ZM3.59846 6.24211H10.1169V4.24211H3.59846V6.24211ZM2.72789 7.12207C2.73237 6.69265 2.8482 6.50882 2.92612 6.43095C3.00253 6.35458 3.18038 6.24211 3.59846 6.24211V4.24211C2.81992 4.24211 2.06881 4.46011 1.51227 5.01637C0.957237 5.57111 0.736122 6.32205 0.728002 7.10123L2.72789 7.12207ZM1.07925 8.76001C1.31757 8.76001 1.88531 8.76007 2.30419 8.3414C2.71897 7.92684 2.72503 7.36231 2.72788 7.12356L0.728019 7.09974C0.726744 7.20678 0.719284 7.22699 0.724375 7.2055C0.732029 7.17319 0.768038 7.04906 0.890341 6.92682C1.0135 6.80373 1.1397 6.76686 1.1765 6.75841C1.20127 6.75273 1.18413 6.76001 1.07925 6.76001V8.76001ZM0.975789 8.75817C0.998209 8.75882 1.03711 8.76001 1.07925 8.76001V6.76001C1.07053 6.76001 1.06 6.75977 1.03345 6.75901L0.975789 8.75817ZM0.94182 8.75656C0.932005 8.75738 0.927611 8.75721 0.932696 8.75721C0.935329 8.75721 0.939694 8.75725 0.947011 8.75741C0.954762 8.75757 0.96312 8.75781 0.975803 8.75817L1.03344 6.75901C0.992305 6.75782 0.890325 6.75392 0.775819 6.76346L0.94182 8.75656ZM1.04628 8.60426C1.04626 8.6058 1.04553 8.62173 1.03553 8.64609C1.0255 8.67051 1.00959 8.69493 0.989035 8.71559C0.945399 8.75944 0.911055 8.75876 0.926198 8.75774L0.791441 6.76228C-0.149357 6.82582 -0.939703 7.54053 -0.953538 8.57758L1.04628 8.60426ZM1.05261 11.9474C1.04009 10.8342 1.04008 9.71342 1.04636 8.59654L-0.953611 8.5853C-0.959929 9.70935 -0.959944 10.842 -0.947266 11.9699L1.05261 11.9474ZM0.941497 11.7971C0.905429 11.7953 0.938736 11.7876 0.988485 11.8366C1.012 11.8597 1.03024 11.8875 1.04148 11.9153C1.05258 11.9428 1.05267 11.9596 1.05267 11.9586H-0.947329C-0.947329 12.4508 -0.765683 12.9165 -0.413939 13.2625C-0.0681826 13.6025 0.383944 13.7712 0.839122 13.7945L0.941497 11.7971ZM1.20521 11.7958H0.89031V13.7958H1.20521V11.7958ZM2.73291 13.2603C2.71856 12.9831 2.64958 12.5475 2.29642 12.2044C1.9459 11.8639 1.51145 11.8058 1.23966 11.7964L1.17077 13.7952C1.26425 13.7984 1.08487 13.8158 0.902829 13.639C0.718142 13.4596 0.731033 13.2758 0.735582 13.3637L2.73291 13.2603ZM2.73425 13.5952V13.312H0.734246V13.5952H2.73425ZM3.47867 14.3137C3.19904 14.312 3.02934 14.2208 2.93109 14.1236C2.83269 14.0262 2.73927 13.8569 2.73407 13.5767L0.734417 13.6138C0.748119 14.3533 1.01368 15.0401 1.52462 15.5455C2.0357 16.051 2.72568 16.3091 3.46633 16.3137L3.47867 14.3137ZM5.92105 14.3137C5.10743 14.32 4.29381 14.32 3.48019 14.3137L3.46481 16.3137C4.28868 16.32 5.11255 16.32 5.93642 16.3137L5.92105 14.3137ZM7.33367 13.8528C6.91224 14.162 6.45164 14.3137 5.92873 14.3137V16.3137C6.87957 16.3137 7.75415 16.0248 8.51675 15.4653L7.33367 13.8528ZM7.95428 13.3875C7.74462 13.5451 7.53664 13.7014 7.32733 13.8575L8.52309 15.4606C8.73577 15.302 8.94662 15.1436 9.1558 14.9864L7.95428 13.3875ZM8.58693 12.9133C8.37428 13.0719 8.16344 13.2303 7.95428 13.3875L9.1558 14.9864C9.36543 14.8288 9.5734 14.6725 9.7827 14.5164L8.58693 12.9133ZM11.6878 12.9219C11.2482 12.5913 10.7324 12.3489 10.1384 12.3474C9.54452 12.3459 9.02836 12.5855 8.58869 12.912L9.78094 14.5177C10.0026 14.3532 10.1068 14.3473 10.1333 14.3474C10.1596 14.3475 10.2642 14.3537 10.4858 14.5204L11.6878 12.9219ZM12.2513 13.3427C12.0645 13.2021 11.8728 13.0577 11.679 12.9153L10.4946 14.5269C10.6776 14.6614 10.8602 14.7988 11.0485 14.9406L12.2513 13.3427ZM12.9582 13.868C12.7235 13.698 12.4913 13.5233 12.2513 13.3427L11.0485 14.9406C11.2861 15.1194 11.5329 15.3052 11.785 15.4878L12.9582 13.868ZM13.885 14.2644C13.6087 14.2517 13.3128 14.13 12.9658 13.8736L11.7774 15.4823C12.2995 15.868 12.9736 16.2246 13.7932 16.2623L13.885 14.2644ZM16.3187 14.3116C15.4886 14.3067 14.6832 14.3019 13.886 14.2645L13.7922 16.2623C14.6373 16.3019 15.4839 16.3067 16.307 16.3115L16.3187 14.3116ZM16.6735 14.3137C16.555 14.3129 16.4366 14.3123 16.3187 14.3116L16.307 16.3115C16.4251 16.3122 16.5427 16.3129 16.6602 16.3137L16.6735 14.3137ZM17.5185 13.4828C17.5164 13.8613 17.4071 14.04 17.3224 14.1236C17.2375 14.2075 17.0556 14.3158 16.6723 14.3137L16.6614 16.3137C17.437 16.3179 18.1778 16.0895 18.7274 15.547C19.2772 15.0043 19.5143 14.2671 19.5185 13.4937L17.5185 13.4828ZM19.2176 11.7958C19.056 11.7958 18.8566 11.8013 18.6621 11.8405C18.4566 11.8819 18.181 11.9753 17.9443 12.2101C17.7077 12.4446 17.612 12.7191 17.5688 12.9236C17.5278 13.1174 17.5203 13.3164 17.5186 13.4776L19.5184 13.4989C19.5199 13.3643 19.5273 13.3288 19.5255 13.3372C19.5215 13.3564 19.4891 13.4948 19.3525 13.6302C19.2158 13.7658 19.0768 13.7971 19.0569 13.8011C19.048 13.8029 19.0832 13.7958 19.2176 13.7958V11.7958ZM19.2064 11.8201C19.2064 11.8607 19.2038 11.8894 19.2011 11.908C19.1985 11.9265 19.196 11.933 19.1969 11.9303C19.198 11.9273 19.2024 11.9152 19.213 11.8977C19.2238 11.8799 19.2388 11.8601 19.2582 11.8411C19.2775 11.8221 19.2969 11.8079 19.3136 11.798C19.3298 11.7885 19.3402 11.785 19.3411 11.7847C19.3417 11.7845 19.3329 11.7874 19.3121 11.7903C19.2911 11.7932 19.2602 11.7958 19.2176 11.7958V13.7958C19.695 13.7958 20.2412 13.6801 20.6618 13.2658C21.0851 12.8488 21.2064 12.3017 21.2064 11.8201H19.2064ZM19.2064 8.7357V11.8201H21.2064V8.7357H19.2064ZM19.2176 8.76001C19.2602 8.76001 19.2911 8.76262 19.3121 8.76553C19.3329 8.76843 19.3417 8.77134 19.3411 8.77115C19.3402 8.77086 19.3298 8.76735 19.3136 8.75778C19.2969 8.74797 19.2775 8.73377 19.2582 8.71474C19.2388 8.69568 19.2238 8.67591 19.213 8.65809C19.2024 8.64064 19.198 8.62857 19.1969 8.6255C19.196 8.62277 19.1985 8.62929 19.2011 8.64781C19.2038 8.66642 19.2064 8.69515 19.2064 8.7357H21.2064C21.2064 8.2541 21.0851 7.70701 20.6618 7.28998C20.2412 6.87572 19.695 6.76001 19.2176 6.76001V8.76001ZM17.5186 7.07823C17.5203 7.23926 17.5278 7.43846 17.569 7.63237C17.6126 7.83789 17.7094 8.11232 17.9471 8.34621C18.1836 8.5788 18.4576 8.67087 18.6591 8.71208C18.8504 8.75123 19.0475 8.75826 19.207 8.75995L19.2282 6.76007C19.0916 6.75861 19.0541 6.75148 19.0599 6.75266C19.0758 6.75591 19.2132 6.78621 19.3497 6.92045C19.4875 7.05597 19.5208 7.19546 19.5253 7.21667C19.5273 7.22625 19.5199 7.19176 19.5184 7.05694L17.5186 7.07823ZM16.6669 6.24211C17.0534 6.24211 17.2353 6.35089 17.32 6.43457C17.4046 6.51801 17.5144 6.6967 17.5186 7.07852L19.5184 7.05665C19.51 6.28653 19.2734 5.55248 18.725 5.01117C18.1768 4.47009 17.4392 4.24211 16.6669 4.24211V6.24211Z" fill="#E60000" mask="url(#path-1-inside-1_1_1021)"/>
    </g>
    <defs>
    <filter id="filter0_b_1_1021" x="-11.9578" y="-11.8" width="44.1642" height="39.1184" filterUnits="userSpaceOnUse" color-interpolation-filters="sRGB">
    <feFlood flood-opacity="0" result="BackgroundImageFix"/>
    <feGaussianBlur in="BackgroundImageFix" stdDeviation="6"/>
    <feComposite in2="SourceAlpha" operator="in" result="effect1_backgroundBlur_1_1021"/>
    <feBlend mode="normal" in="SourceGraphic" in2="effect1_backgroundBlur_1_1021" result="shape"/>
    </filter>
    </defs>
    </svg>
    